<svg xmlns="http://www.w3.org/2000/svg" xmlns:xlink="http://www.w3.org/1999/xlink" width="500" zoomAndPan="magnify" viewBox="0 0 375 374.999991" height="500" preserveAspectRatio="xMidYMid meet" version="1.0"><defs><g/><clipPath id="d0f47ad51c"><path d="M 119.601562 92.734375 L 255.351562 92.734375 L 255.351562 219.484375 L 119.601562 219.484375 Z M 119.601562 92.734375 " clip-rule="nonzero"/></clipPath></defs><g clip-path="url(#d0f47ad51c)"><path fill="#f7941e" d="M 214.46875 181.84375 C 214.074219 180.839844 214.578125 179.714844 215.566406 179.332031 C 216.570312 178.941406 217.695312 179.441406 218.074219 180.433594 C 218.089844 180.460938 222.226562 191.28125 236.480469 188.949219 C 239.085938 188.527344 241.363281 187.484375 243.316406 186.074219 L 243.332031 186.074219 L 243.371094 186.046875 C 246.667969 183.644531 248.988281 180.1875 250.273438 176.878906 C 244.808594 176.066406 242.476562 171.492188 241.621094 169.160156 C 240.890625 169.039062 240.199219 168.875 239.519531 168.617188 C 236.441406 167.492188 234.054688 165.050781 232.046875 160.25 C 229.714844 154.714844 226.582031 150.851562 223.027344 148.449219 C 219.050781 145.765625 214.507812 144.871094 209.882812 145.453125 C 205.164062 146.035156 200.375 148.164062 196.050781 151.460938 C 194.042969 152.992188 192.128906 154.785156 190.378906 156.792969 C 195.003906 160.371094 200.253906 166.054688 203.074219 174.519531 C 205.410156 181.503906 205.410156 188.269531 203.902344 193.695312 C 203.089844 196.640625 201.828125 199.203125 200.253906 201.210938 C 198.597656 203.3125 196.578125 204.832031 194.3125 205.589844 C 192.402344 206.230469 190.351562 206.308594 188.25 205.726562 C 188.019531 205.660156 187.777344 205.589844 187.519531 205.496094 L 187.421875 205.46875 C 182.417969 203.71875 178.878906 199.203125 177.195312 193.113281 C 175.570312 187.320312 175.636719 180.050781 177.738281 172.46875 C 178.023438 171.425781 178.351562 170.382812 178.730469 169.324219 C 180.222656 165.023438 182.308594 161.089844 184.792969 157.605469 C 183.3125 156.695312 182.039062 156.074219 181.199219 155.691406 L 171.242188 166.136719 C 170.632812 166.789062 169.667969 166.910156 168.910156 166.503906 C 164.71875 164.496094 161.421875 163.585938 158.179688 163.640625 C 154.914062 163.695312 151.5625 164.738281 147.277344 166.652344 C 146.515625 166.992188 145.664062 166.800781 145.105469 166.246094 L 136.777344 157.863281 C 135.953125 160.496094 134.894531 165.769531 134.894531 175.523438 L 134.894531 177.921875 L 139.925781 178.300781 C 140.996094 178.382812 141.796875 179.320312 141.714844 180.390625 C 141.632812 181.460938 140.699219 182.261719 139.628906 182.183594 L 134.878906 181.828125 L 134.878906 186.902344 L 139.859375 185.734375 C 140.902344 185.492188 141.945312 186.140625 142.191406 187.1875 C 142.433594 188.230469 141.785156 189.273438 140.738281 189.519531 L 134.878906 190.890625 L 134.878906 215.695312 L 246.097656 215.695312 L 246.097656 203.433594 C 246.097656 202.363281 246.964844 201.496094 248.035156 201.496094 C 249.109375 201.496094 249.976562 202.363281 249.976562 203.433594 L 249.976562 217.648438 C 249.976562 218.71875 249.109375 219.589844 248.035156 219.589844 L 132.96875 219.589844 C 131.894531 219.589844 131.027344 218.71875 131.027344 217.648438 L 131.027344 191.785156 L 122.308594 193.832031 C 121.261719 194.078125 120.21875 193.425781 119.972656 192.382812 C 119.730469 191.335938 120.382812 190.292969 121.425781 190.046875 L 131.015625 187.796875 L 131.015625 181.515625 L 121.480469 180.796875 C 120.410156 180.71875 119.609375 179.78125 119.691406 178.722656 C 119.769531 177.652344 120.707031 176.851562 121.777344 176.933594 L 131.015625 177.625 L 131.015625 175.523438 C 131.015625 158.335938 134.542969 153.375 134.554688 153.359375 C 134.621094 153.265625 134.691406 153.171875 134.785156 153.089844 C 135.542969 152.328125 136.777344 152.34375 137.523438 153.101562 L 146.925781 162.570312 C 151.101562 160.792969 154.574219 159.816406 158.113281 159.761719 C 161.652344 159.707031 165.167969 160.5625 169.371094 162.460938 L 179.285156 152.070312 C 179.800781 151.527344 180.601562 151.3125 181.347656 151.582031 C 181.359375 151.582031 183.828125 152.464844 187.164062 154.566406 C 189.160156 152.234375 191.355469 150.160156 193.675781 148.382812 C 198.546875 144.667969 203.996094 142.265625 209.394531 141.601562 C 214.914062 140.910156 220.382812 141.996094 225.183594 145.234375 C 229.332031 148.042969 232.953125 152.464844 235.601562 158.757812 C 237.144531 162.421875 238.800781 164.238281 240.835938 164.96875 C 241.527344 165.226562 242.300781 165.363281 243.152344 165.417969 C 243.207031 165.417969 243.261719 165.417969 243.316406 165.429688 C 245.039062 165.527344 247.074219 165.28125 249.449219 164.929688 C 251.863281 164.5625 253.542969 165.582031 254.535156 167.519531 C 255.128906 168.6875 255.386719 170.191406 255.332031 171.875 C 255.292969 172.957031 255.128906 174.140625 254.832031 175.359375 C 254.820312 175.453125 254.792969 175.535156 254.765625 175.617188 C 254.65625 176.066406 254.519531 176.511719 254.371094 176.960938 C 253.203125 180.554688 250.953125 184.445312 247.683594 187.5 C 248.28125 188.027344 248.796875 188.597656 249.203125 189.195312 C 250.113281 190.523438 250.503906 192.015625 250.125 193.546875 C 249.8125 194.78125 249.164062 195.730469 248.292969 196.410156 C 247.496094 197.046875 246.53125 197.425781 245.527344 197.589844 C 244.578125 197.738281 243.574219 197.699219 242.640625 197.46875 C 241.28125 197.128906 240.019531 196.394531 239.152344 195.3125 C 238.882812 194.957031 238.378906 194.59375 237.742188 194.226562 C 236.996094 193.792969 236.113281 193.382812 235.191406 193.03125 C 219.363281 194.59375 214.480469 181.882812 214.46875 181.84375 Z M 187.519531 139.851562 C 189.472656 140.828125 191.859375 140.042969 192.835938 138.074219 L 193.011719 137.734375 C 195.289062 133.191406 197.554688 128.675781 196.335938 124.265625 L 196.226562 123.832031 C 195.425781 121.433594 193.527344 119.832031 191.398438 119.195312 C 190.339844 118.882812 189.199219 118.800781 188.089844 118.976562 C 186.90625 119.167969 185.769531 119.65625 184.804688 120.457031 C 184.601562 120.617188 184.414062 120.808594 184.222656 121 L 183.558594 120.957031 C 182.296875 120.929688 181.089844 121.242188 180.03125 121.800781 C 179.015625 122.328125 178.121094 123.113281 177.425781 124.0625 C 176.179688 125.800781 175.652344 128.078125 176.425781 130.382812 C 177.25 132.851562 179.027344 134.75 181.304688 136.339844 L 181.320312 136.351562 C 183.179688 137.667969 185.335938 138.765625 187.519531 139.851562 Z M 192.429688 125.09375 C 193.445312 128.160156 191.328125 132.230469 189.28125 136.3125 C 185.199219 134.261719 181.199219 132.230469 180.179688 129.164062 C 179.148438 126.042969 183.613281 122.980469 186.214844 126.53125 C 186 121.878906 191.398438 121.976562 192.429688 125.09375 Z M 153.378906 188.503906 C 153.015625 188.40625 152.675781 188.230469 152.363281 187.988281 C 151.835938 187.550781 151.480469 186.96875 151.535156 186.414062 C 151.628906 185.367188 150.859375 184.445312 149.8125 184.367188 C 148.769531 184.269531 147.859375 185.042969 147.765625 186.085938 C 147.601562 187.945312 148.539062 189.734375 149.988281 190.917969 C 150.707031 191.5 151.578125 191.945312 152.5 192.175781 C 153.460938 192.410156 154.480469 192.410156 155.484375 192.097656 C 156.363281 191.824219 157.203125 191.324219 157.949219 190.535156 C 158.695312 191.324219 159.550781 191.824219 160.433594 192.097656 C 161.4375 192.410156 162.453125 192.410156 163.417969 192.175781 C 164.339844 191.945312 165.207031 191.511719 165.925781 190.917969 C 167.121094 189.941406 167.972656 188.542969 168.136719 187.039062 C 168.175781 186.726562 168.175781 186.398438 168.152344 186.085938 C 168.054688 185.042969 167.148438 184.269531 166.101562 184.367188 C 165.558594 184.40625 165.097656 184.675781 164.785156 185.070312 C 164.488281 185.4375 164.339844 185.910156 164.378906 186.414062 C 164.433594 186.96875 164.082031 187.550781 163.550781 187.988281 C 163.253906 188.230469 162.902344 188.40625 162.535156 188.503906 C 162.210938 188.582031 161.871094 188.582031 161.546875 188.488281 C 160.921875 188.285156 160.285156 187.675781 159.78125 186.425781 C 159.632812 185.855469 159.210938 185.367188 158.617188 185.152344 C 158.414062 185.070312 158.195312 185.03125 157.976562 185.03125 L 157.925781 185.03125 C 157.707031 185.03125 157.503906 185.070312 157.285156 185.152344 C 156.691406 185.367188 156.28125 185.855469 156.121094 186.425781 C 155.617188 187.660156 154.996094 188.285156 154.355469 188.488281 C 154.042969 188.582031 153.707031 188.582031 153.378906 188.503906 Z M 251.304688 173.066406 C 251.375 172.605469 251.414062 172.160156 251.429688 171.75 C 251.46875 170.707031 251.332031 169.839844 251.046875 169.257812 C 250.859375 168.890625 250.519531 168.6875 250.003906 168.769531 C 248.539062 168.984375 247.167969 169.175781 245.894531 169.257812 C 246.777344 170.871094 248.417969 172.769531 251.304688 173.066406 Z M 226.253906 161.714844 C 226.242188 161.703125 221.875 158.527344 217.410156 161.265625 C 216.503906 161.824219 216.203125 163.015625 216.761719 163.9375 C 217.316406 164.847656 218.511719 165.144531 219.433594 164.589844 C 221.683594 163.207031 224.003906 164.902344 224.015625 164.902344 C 224.898438 165.527344 226.105469 165.308594 226.730469 164.425781 C 227.339844 163.546875 227.121094 162.324219 226.253906 161.714844 Z M 164.015625 175.238281 L 164.015625 178.886719 C 164.015625 179.957031 164.882812 180.824219 165.953125 180.824219 C 167.023438 180.824219 167.90625 179.957031 167.90625 178.886719 L 167.90625 175.238281 C 167.90625 174.164062 167.039062 173.296875 165.953125 173.296875 C 164.894531 173.296875 164.015625 174.164062 164.015625 175.238281 Z M 147.75 175.238281 L 147.75 178.886719 C 147.75 179.957031 148.621094 180.824219 149.703125 180.824219 C 150.777344 180.824219 151.644531 179.957031 151.644531 178.886719 L 151.644531 175.238281 C 151.644531 174.164062 150.777344 173.296875 149.703125 173.296875 C 148.621094 173.296875 147.75 174.164062 147.75 175.238281 Z M 244.539062 189.941406 C 243.4375 190.644531 242.246094 191.242188 240.984375 191.730469 C 241.457031 192.097656 241.878906 192.488281 242.191406 192.898438 C 242.503906 193.277344 242.992188 193.5625 243.5625 193.695312 C 244.007812 193.804688 244.46875 193.832031 244.890625 193.765625 C 245.269531 193.710938 245.609375 193.574219 245.867188 193.371094 C 246.082031 193.195312 246.261719 192.949219 246.339844 192.613281 C 246.4375 192.246094 246.289062 191.8125 245.988281 191.363281 C 245.636719 190.863281 245.132812 190.386719 244.539062 189.941406 Z M 134.746094 146.023438 L 134.746094 132.1875 L 190.339844 97.085938 L 246.082031 132.1875 L 246.082031 161.078125 C 246.082031 162.148438 246.953125 163.015625 248.023438 163.015625 C 249.09375 163.015625 249.976562 162.148438 249.976562 161.078125 L 249.976562 131.128906 C 249.976562 130.492188 249.652344 129.855469 249.066406 129.488281 L 191.382812 93.152344 C 190.773438 92.761719 189.960938 92.734375 189.308594 93.152344 L 131.894531 129.40625 C 131.273438 129.734375 130.851562 130.382812 130.851562 131.128906 L 130.851562 146.023438 C 130.851562 147.09375 131.71875 147.960938 132.804688 147.960938 C 133.875 147.976562 134.746094 147.109375 134.746094 146.023438 Z M 187.980469 159.816406 C 185.6875 163.015625 183.761719 166.652344 182.378906 170.613281 C 182.039062 171.589844 181.742188 172.550781 181.46875 173.515625 C 179.558594 180.40625 179.476562 186.941406 180.914062 192.082031 C 182.257812 196.9375 184.957031 200.503906 188.683594 201.808594 L 188.753906 201.835938 C 188.902344 201.890625 189.078125 201.941406 189.269531 201.996094 C 190.609375 202.363281 191.886719 202.324219 193.078125 201.929688 C 194.585938 201.425781 195.980469 200.34375 197.175781 198.824219 C 198.449219 197.210938 199.46875 195.105469 200.144531 192.679688 C 201.460938 187.917969 201.449219 181.949219 199.371094 175.738281 C 196.835938 168.101562 192.117188 163.015625 187.980469 159.816406 Z M 187.980469 159.816406 " fill-opacity="1" fill-rule="evenodd"/></g><g fill="#000000" fill-opacity="1"><g transform="translate(77.657123, 253.551171)"><g><path d="M 19 -14.015625 C 19 -12.804688 18.753906 -11.695312 18.265625 -10.6875 C 17.785156 -9.675781 17.132812 -8.8125 16.3125 -8.09375 C 15.488281 -7.351562 14.53125 -6.773438 13.4375 -6.359375 C 12.351562 -5.953125 11.207031 -5.75 10 -5.75 L 6.46875 -5.75 L 6.46875 -1.90625 C 6.46875 -1.3125 6.269531 -0.816406 5.875 -0.421875 C 5.476562 -0.0234375 4.984375 0.171875 4.390625 0.171875 C 3.796875 0.171875 3.3125 -0.0234375 2.9375 -0.421875 C 2.539062 -0.816406 2.34375 -1.3125 2.34375 -1.90625 L 2.34375 -20.359375 C 2.3125 -20.597656 2.273438 -20.832031 2.234375 -21.0625 C 2.210938 -21.175781 2.191406 -21.285156 2.171875 -21.390625 C 2.148438 -21.492188 2.140625 -21.597656 2.140625 -21.703125 C 2.140625 -21.984375 2.234375 -22.191406 2.421875 -22.328125 C 2.523438 -22.398438 2.671875 -22.453125 2.859375 -22.484375 C 3.046875 -22.523438 3.289062 -22.546875 3.59375 -22.546875 L 10 -22.546875 C 11.207031 -22.546875 12.351562 -22.328125 13.4375 -21.890625 C 14.53125 -21.453125 15.488281 -20.851562 16.3125 -20.09375 C 17.132812 -19.332031 17.785156 -18.429688 18.265625 -17.390625 C 18.753906 -16.347656 19 -15.222656 19 -14.015625 Z M 14.9375 -13.90625 C 14.9375 -14.582031 14.804688 -15.21875 14.546875 -15.8125 C 14.296875 -16.40625 13.945312 -16.925781 13.5 -17.375 C 13.039062 -17.8125 12.507812 -18.160156 11.90625 -18.421875 C 11.3125 -18.679688 10.675781 -18.8125 10 -18.8125 L 6.40625 -18.8125 L 6.40625 -9.359375 L 10 -9.359375 C 10.675781 -9.359375 11.3125 -9.460938 11.90625 -9.671875 C 12.507812 -9.890625 13.039062 -10.195312 13.5 -10.59375 C 13.945312 -11 14.296875 -11.476562 14.546875 -12.03125 C 14.804688 -12.59375 14.9375 -13.21875 14.9375 -13.90625 Z M 14.9375 -13.90625 "/></g></g></g><g fill="#000000" fill-opacity="1"><g transform="translate(97.324847, 253.551171)"><g><path d="M 17.375 -17.15625 C 18.125 -17.15625 18.5 -16.78125 18.5 -16.03125 L 18.5 -1.140625 C 18.5 -0.253906 18.066406 0.1875 17.203125 0.1875 C 16.773438 0.1875 16.421875 0.0625 16.140625 -0.1875 C 15.867188 -0.4375 15.671875 -0.765625 15.546875 -1.171875 L 15.28125 -2.203125 C 14.632812 -1.460938 13.847656 -0.878906 12.921875 -0.453125 C 11.992188 -0.0234375 10.957031 0.1875 9.8125 0.1875 C 8.613281 0.1875 7.492188 -0.0351562 6.453125 -0.484375 C 5.410156 -0.941406 4.488281 -1.566406 3.6875 -2.359375 C 2.90625 -3.140625 2.28125 -4.054688 1.8125 -5.109375 C 1.351562 -6.171875 1.125 -7.296875 1.125 -8.484375 C 1.125 -9.679688 1.351562 -10.804688 1.8125 -11.859375 C 2.28125 -12.910156 2.90625 -13.828125 3.6875 -14.609375 C 4.488281 -15.390625 5.410156 -16.007812 6.453125 -16.46875 C 7.492188 -16.925781 8.613281 -17.15625 9.8125 -17.15625 C 10.988281 -17.15625 12.046875 -16.925781 12.984375 -16.46875 C 13.921875 -16.019531 14.71875 -15.410156 15.375 -14.640625 L 15.546875 -15.125 C 15.679688 -15.851562 15.910156 -16.375 16.234375 -16.6875 C 16.554688 -17 16.9375 -17.15625 17.375 -17.15625 Z M 13.015625 -5.1875 C 13.421875 -5.601562 13.738281 -6.097656 13.96875 -6.671875 C 14.195312 -7.242188 14.3125 -7.847656 14.3125 -8.484375 C 14.3125 -9.117188 14.195312 -9.71875 13.96875 -10.28125 C 13.738281 -10.851562 13.421875 -11.351562 13.015625 -11.78125 C 12.609375 -12.195312 12.128906 -12.53125 11.578125 -12.78125 C 11.035156 -13.03125 10.445312 -13.15625 9.8125 -13.15625 C 9.175781 -13.15625 8.582031 -13.03125 8.03125 -12.78125 C 7.488281 -12.53125 7.015625 -12.195312 6.609375 -11.78125 C 6.210938 -11.351562 5.894531 -10.851562 5.65625 -10.28125 C 5.425781 -9.71875 5.3125 -9.117188 5.3125 -8.484375 C 5.3125 -7.847656 5.425781 -7.242188 5.65625 -6.671875 C 5.894531 -6.097656 6.210938 -5.601562 6.609375 -5.1875 C 7.015625 -4.757812 7.488281 -4.421875 8.03125 -4.171875 C 8.582031 -3.929688 9.175781 -3.8125 9.8125 -3.8125 C 10.445312 -3.8125 11.035156 -3.929688 11.578125 -4.171875 C 12.128906 -4.421875 12.609375 -4.757812 13.015625 -5.1875 Z M 13.015625 -5.1875 "/></g></g></g><g fill="#000000" fill-opacity="1"><g transform="translate(117.959256, 253.551171)"><g><path d="M 18.125 -1 L 14.34375 -10.78125 L 10.875 -2 C 10.632812 -1.375 10.296875 -0.851562 9.859375 -0.4375 C 9.429688 -0.03125 8.96875 0.171875 8.46875 0.171875 C 8.082031 0.179688 7.722656 0.09375 7.390625 -0.09375 C 7.066406 -0.289062 6.8125 -0.585938 6.625 -0.984375 L 1.25 -13.109375 C 1.09375 -13.453125 0.957031 -13.789062 0.84375 -14.125 C 0.738281 -14.457031 0.648438 -14.789062 0.578125 -15.125 C 0.554688 -15.519531 0.640625 -15.882812 0.828125 -16.21875 C 1.015625 -16.550781 1.304688 -16.8125 1.703125 -17 C 1.960938 -17.113281 2.226562 -17.179688 2.5 -17.203125 C 2.78125 -17.234375 3.039062 -17.203125 3.28125 -17.109375 C 3.8125 -16.921875 4.210938 -16.5625 4.484375 -16.03125 L 8.53125 -6.03125 L 12.46875 -16.03125 C 12.59375 -16.34375 12.789062 -16.597656 13.0625 -16.796875 C 13.34375 -17.003906 13.65625 -17.128906 14 -17.171875 C 14.4375 -17.253906 14.863281 -17.191406 15.28125 -16.984375 C 15.707031 -16.785156 16.039062 -16.472656 16.28125 -16.046875 L 20.09375 -6.03125 L 24.265625 -16.03125 C 24.367188 -16.289062 24.519531 -16.515625 24.71875 -16.703125 C 24.925781 -16.890625 25.160156 -17.023438 25.421875 -17.109375 C 25.660156 -17.203125 25.921875 -17.234375 26.203125 -17.203125 C 26.484375 -17.179688 26.757812 -17.113281 27.03125 -17 C 27.40625 -16.820312 27.695312 -16.566406 27.90625 -16.234375 C 28.113281 -15.898438 28.203125 -15.546875 28.171875 -15.171875 C 28.171875 -15.003906 28.109375 -14.71875 27.984375 -14.3125 C 27.910156 -14.125 27.835938 -13.925781 27.765625 -13.71875 C 27.691406 -13.507812 27.617188 -13.328125 27.546875 -13.171875 L 21.953125 -1 C 21.628906 -0.363281 21.15625 0.0078125 20.53125 0.125 C 20.070312 0.25 19.601562 0.207031 19.125 0 C 18.90625 -0.09375 18.703125 -0.222656 18.515625 -0.390625 C 18.335938 -0.566406 18.207031 -0.769531 18.125 -1 Z M 18.125 -1 "/></g></g></g><g fill="#000000" fill-opacity="1"><g transform="translate(146.696271, 253.551171)"><g><path d="M 10.203125 -15.234375 C 10.453125 -15.234375 10.691406 -15.179688 10.921875 -15.078125 C 11.148438 -14.984375 11.351562 -14.859375 11.53125 -14.703125 C 11.707031 -14.523438 11.84375 -14.320312 11.9375 -14.09375 C 12.039062 -13.863281 12.09375 -13.613281 12.09375 -13.34375 C 12.09375 -12.8125 11.90625 -12.375 11.53125 -12.03125 C 11.15625 -11.65625 10.710938 -11.46875 10.203125 -11.46875 L 8.109375 -11.46875 L 8.109375 -1.90625 C 8.109375 -1.632812 8.050781 -1.375 7.9375 -1.125 C 7.832031 -0.875 7.695312 -0.648438 7.53125 -0.453125 C 7.34375 -0.265625 7.117188 -0.113281 6.859375 0 C 6.597656 0.113281 6.320312 0.171875 6.03125 0.171875 C 5.726562 0.171875 5.445312 0.113281 5.1875 0 C 4.9375 -0.125 4.71875 -0.28125 4.53125 -0.46875 C 4.144531 -0.882812 3.953125 -1.363281 3.953125 -1.90625 L 3.953125 -11.46875 L 2.625 -11.46875 C 2.082031 -11.46875 1.632812 -11.65625 1.28125 -12.03125 C 0.914062 -12.382812 0.734375 -12.820312 0.734375 -13.34375 C 0.734375 -13.613281 0.78125 -13.863281 0.875 -14.09375 C 0.976562 -14.320312 1.113281 -14.523438 1.28125 -14.703125 C 1.445312 -14.859375 1.644531 -14.984375 1.875 -15.078125 C 2.101562 -15.179688 2.351562 -15.234375 2.625 -15.234375 L 3.953125 -15.234375 C 3.972656 -16.359375 4.125 -17.398438 4.40625 -18.359375 C 4.6875 -19.316406 5.085938 -20.144531 5.609375 -20.84375 C 6.160156 -21.582031 6.84375 -22.160156 7.65625 -22.578125 C 8.46875 -22.992188 9.421875 -23.203125 10.515625 -23.203125 C 11.097656 -23.203125 11.585938 -23.003906 11.984375 -22.609375 C 12.390625 -22.210938 12.59375 -21.71875 12.59375 -21.125 C 12.59375 -20.707031 12.476562 -20.332031 12.25 -20 C 12.03125 -19.675781 11.734375 -19.441406 11.359375 -19.296875 C 10.921875 -19.203125 10.507812 -19.085938 10.125 -18.953125 C 9.75 -18.816406 9.410156 -18.617188 9.109375 -18.359375 C 8.816406 -18.097656 8.578125 -17.753906 8.390625 -17.328125 C 8.210938 -16.910156 8.117188 -16.382812 8.109375 -15.75 L 8.109375 -15.234375 Z M 10.203125 -15.234375 "/></g></g></g><g fill="#000000" fill-opacity="1"><g transform="translate(160.03657, 253.551171)"><g><path d="M 9.75 0.171875 C 8.5625 0.171875 7.441406 -0.0546875 6.390625 -0.515625 C 5.347656 -0.972656 4.429688 -1.59375 3.640625 -2.375 C 2.859375 -3.144531 2.234375 -4.054688 1.765625 -5.109375 C 1.304688 -6.171875 1.078125 -7.296875 1.078125 -8.484375 C 1.078125 -9.753906 1.3125 -10.921875 1.78125 -11.984375 C 2.25 -13.046875 2.882812 -13.960938 3.6875 -14.734375 C 4.5 -15.492188 5.4375 -16.085938 6.5 -16.515625 C 7.570312 -16.953125 8.703125 -17.171875 9.890625 -17.171875 C 11.085938 -17.171875 12.203125 -16.957031 13.234375 -16.53125 C 14.273438 -16.113281 15.1875 -15.53125 15.96875 -14.78125 C 16.738281 -14.03125 17.34375 -13.140625 17.78125 -12.109375 C 18.226562 -11.078125 18.453125 -9.957031 18.453125 -8.75 C 18.453125 -8.164062 18.300781 -7.773438 18 -7.578125 C 17.695312 -7.378906 17.175781 -7.28125 16.4375 -7.28125 L 5.328125 -7.28125 C 5.367188 -6.738281 5.515625 -6.226562 5.765625 -5.75 C 6.023438 -5.269531 6.351562 -4.84375 6.75 -4.46875 C 7.144531 -4.101562 7.597656 -3.804688 8.109375 -3.578125 C 8.628906 -3.347656 9.1875 -3.234375 9.78125 -3.234375 C 10.9375 -3.234375 11.953125 -3.609375 12.828125 -4.359375 C 13.078125 -4.503906 13.367188 -4.582031 13.703125 -4.59375 C 14.046875 -4.601562 14.378906 -4.550781 14.703125 -4.4375 C 15.015625 -4.3125 15.28125 -4.117188 15.5 -3.859375 C 15.726562 -3.597656 15.84375 -3.265625 15.84375 -2.859375 C 15.84375 -2.410156 15.65625 -2 15.28125 -1.625 C 14.90625 -1.257812 14.421875 -0.941406 13.828125 -0.671875 C 13.242188 -0.410156 12.585938 -0.203125 11.859375 -0.046875 C 11.140625 0.0976562 10.4375 0.171875 9.75 0.171875 Z M 9.890625 -13.796875 C 9.316406 -13.796875 8.765625 -13.695312 8.234375 -13.5 C 7.710938 -13.300781 7.25 -13.023438 6.84375 -12.671875 C 6.425781 -12.316406 6.078125 -11.898438 5.796875 -11.421875 C 5.523438 -10.953125 5.359375 -10.4375 5.296875 -9.875 L 14.28125 -9.875 C 14.226562 -10.4375 14.078125 -10.953125 13.828125 -11.421875 C 13.578125 -11.898438 13.257812 -12.316406 12.875 -12.671875 C 12.46875 -13.023438 12.007812 -13.300781 11.5 -13.5 C 10.988281 -13.695312 10.453125 -13.796875 9.890625 -13.796875 Z M 9.890625 -13.796875 "/></g></g></g><g fill="#000000" fill-opacity="1"><g transform="translate(179.563683, 253.551171)"><g><path d="M 15.921875 -14.765625 C 16.367188 -14.285156 16.59375 -13.796875 16.59375 -13.296875 C 16.59375 -12.703125 16.375 -12.222656 15.9375 -11.859375 C 15.738281 -11.691406 15.503906 -11.566406 15.234375 -11.484375 C 14.972656 -11.410156 14.691406 -11.40625 14.390625 -11.46875 C 13.796875 -11.757812 13.191406 -12.046875 12.578125 -12.328125 C 11.972656 -12.617188 11.320312 -12.828125 10.625 -12.953125 C 9.945312 -13.035156 9.285156 -12.992188 8.640625 -12.828125 C 8.003906 -12.671875 7.429688 -12.394531 6.921875 -12 C 6.421875 -11.613281 6.015625 -11.125 5.703125 -10.53125 C 5.398438 -9.945312 5.25 -9.265625 5.25 -8.484375 C 5.25 -7.734375 5.394531 -7.0625 5.6875 -6.46875 C 5.976562 -5.882812 6.367188 -5.398438 6.859375 -5.015625 C 7.347656 -4.609375 7.914062 -4.316406 8.5625 -4.140625 C 9.207031 -3.972656 9.894531 -3.9375 10.625 -4.03125 C 11.1875 -4.082031 11.734375 -4.21875 12.265625 -4.4375 C 12.796875 -4.664062 13.265625 -4.96875 13.671875 -5.34375 C 13.941406 -5.488281 14.242188 -5.578125 14.578125 -5.609375 C 14.910156 -5.640625 15.234375 -5.59375 15.546875 -5.46875 C 15.867188 -5.34375 16.128906 -5.125 16.328125 -4.8125 C 16.523438 -4.5 16.625 -4.140625 16.625 -3.734375 C 16.625 -3.265625 16.441406 -2.796875 16.078125 -2.328125 C 15.722656 -1.867188 15.234375 -1.453125 14.609375 -1.078125 C 13.972656 -0.710938 13.234375 -0.410156 12.390625 -0.171875 C 11.554688 0.0664062 10.671875 0.1875 9.734375 0.1875 C 8.546875 0.1875 7.425781 -0.0351562 6.375 -0.484375 C 5.320312 -0.941406 4.40625 -1.566406 3.625 -2.359375 C 2.832031 -3.140625 2.207031 -4.054688 1.75 -5.109375 C 1.300781 -6.171875 1.078125 -7.296875 1.078125 -8.484375 C 1.078125 -9.679688 1.300781 -10.804688 1.75 -11.859375 C 2.207031 -12.910156 2.832031 -13.828125 3.625 -14.609375 C 4.40625 -15.390625 5.320312 -16.007812 6.375 -16.46875 C 7.425781 -16.925781 8.546875 -17.15625 9.734375 -17.15625 C 10.941406 -17.15625 12.097656 -16.953125 13.203125 -16.546875 C 13.753906 -16.328125 14.257812 -16.070312 14.71875 -15.78125 C 15.1875 -15.488281 15.585938 -15.148438 15.921875 -14.765625 Z M 15.921875 -14.765625 "/></g></g></g><g fill="#000000" fill-opacity="1"><g transform="translate(197.280445, 253.551171)"><g><path d="M 11.5625 -16.28125 C 11.738281 -16.09375 11.878906 -15.875 11.984375 -15.625 C 12.085938 -15.382812 12.140625 -15.113281 12.140625 -14.8125 C 12.140625 -14.53125 12.085938 -14.269531 11.984375 -14.03125 C 11.878906 -13.789062 11.738281 -13.578125 11.5625 -13.390625 C 11.375 -13.203125 11.15625 -13.054688 10.90625 -12.953125 C 10.664062 -12.847656 10.40625 -12.796875 10.125 -12.796875 L 8.375 -12.796875 L 8.375 -1.90625 C 8.375 -1.601562 8.316406 -1.328125 8.203125 -1.078125 C 8.085938 -0.828125 7.9375 -0.609375 7.75 -0.421875 C 7.351562 -0.0234375 6.867188 0.171875 6.296875 0.171875 C 5.691406 0.171875 5.203125 -0.0234375 4.828125 -0.421875 C 4.429688 -0.816406 4.234375 -1.3125 4.234375 -1.90625 L 4.234375 -12.796875 L 2.5625 -12.796875 C 1.988281 -12.796875 1.515625 -12.992188 1.140625 -13.390625 C 0.953125 -13.578125 0.804688 -13.789062 0.703125 -14.03125 C 0.597656 -14.269531 0.546875 -14.53125 0.546875 -14.8125 C 0.546875 -15.113281 0.597656 -15.382812 0.703125 -15.625 C 0.804688 -15.875 0.953125 -16.09375 1.140625 -16.28125 C 1.515625 -16.65625 1.988281 -16.84375 2.5625 -16.84375 L 4.234375 -16.84375 L 4.234375 -20.484375 C 4.234375 -21.054688 4.429688 -21.539062 4.828125 -21.9375 C 5.203125 -22.332031 5.691406 -22.53125 6.296875 -22.53125 C 6.867188 -22.53125 7.351562 -22.332031 7.75 -21.9375 C 7.9375 -21.75 8.085938 -21.53125 8.203125 -21.28125 C 8.316406 -21.03125 8.375 -20.765625 8.375 -20.484375 L 8.375 -16.84375 L 10.125 -16.84375 C 10.6875 -16.84375 11.164062 -16.65625 11.5625 -16.28125 Z M 11.5625 -16.28125 "/></g></g></g><g fill="#000000" fill-opacity="1"><g transform="translate(209.917703, 253.551171)"><g><path d="M 11.5 -9.328125 L 6.28125 -15.984375 C 6.28125 -14.671875 6.28125 -13.390625 6.28125 -12.140625 C 6.28125 -10.898438 6.285156 -9.691406 6.296875 -8.515625 L 6.296875 -1.90625 C 6.296875 -1.3125 6.101562 -0.820312 5.71875 -0.4375 C 5.53125 -0.25 5.304688 -0.101562 5.046875 0 C 4.796875 0.113281 4.519531 0.171875 4.21875 0.171875 C 3.625 0.171875 3.140625 -0.0234375 2.765625 -0.421875 C 2.359375 -0.816406 2.15625 -1.3125 2.15625 -1.90625 L 2.15625 -15.765625 C 2.15625 -16.554688 2.15625 -17.320312 2.15625 -18.0625 C 2.15625 -18.800781 2.148438 -19.519531 2.140625 -20.21875 C 2.140625 -20.34375 2.128906 -20.460938 2.109375 -20.578125 C 2.097656 -20.691406 2.082031 -20.800781 2.0625 -20.90625 C 1.988281 -21.101562 1.953125 -21.320312 1.953125 -21.5625 C 1.953125 -21.695312 1.96875 -21.816406 2 -21.921875 C 2.039062 -22.023438 2.113281 -22.117188 2.21875 -22.203125 C 2.320312 -22.273438 2.46875 -22.332031 2.65625 -22.375 C 2.84375 -22.414062 3.09375 -22.4375 3.40625 -22.4375 C 3.75 -22.4375 4.035156 -22.425781 4.265625 -22.40625 C 4.503906 -22.394531 4.71875 -22.367188 4.90625 -22.328125 C 5.21875 -22.242188 5.539062 -22.03125 5.875 -21.6875 L 13.15625 -12.796875 C 14.144531 -14.015625 15.003906 -15.066406 15.734375 -15.953125 C 16.472656 -16.847656 17.09375 -17.617188 17.59375 -18.265625 C 18.113281 -18.898438 18.53125 -19.421875 18.84375 -19.828125 C 19.15625 -20.234375 19.40625 -20.566406 19.59375 -20.828125 C 19.6875 -20.960938 19.765625 -21.078125 19.828125 -21.171875 C 19.898438 -21.265625 19.957031 -21.335938 20 -21.390625 C 20.082031 -21.523438 20.148438 -21.628906 20.203125 -21.703125 C 20.265625 -21.773438 20.335938 -21.863281 20.421875 -21.96875 C 20.585938 -22.164062 20.863281 -22.300781 21.25 -22.375 C 21.445312 -22.414062 21.6875 -22.4375 21.96875 -22.4375 C 22.539062 -22.4375 22.976562 -22.3125 23.28125 -22.0625 C 23.582031 -21.820312 23.796875 -21.507812 23.921875 -21.125 C 24.054688 -20.738281 24.125 -20.296875 24.125 -19.796875 C 24.132812 -19.304688 24.140625 -18.804688 24.140625 -18.296875 L 24.140625 -1.90625 C 24.140625 -1.320312 23.953125 -0.832031 23.578125 -0.4375 C 23.390625 -0.25 23.164062 -0.101562 22.90625 0 C 22.644531 0.113281 22.363281 0.171875 22.0625 0.171875 C 21.851562 0.171875 21.628906 0.128906 21.390625 0.046875 C 21.148438 -0.0351562 20.925781 -0.160156 20.71875 -0.328125 C 20.507812 -0.492188 20.335938 -0.707031 20.203125 -0.96875 C 20.078125 -1.226562 20.015625 -1.539062 20.015625 -1.90625 L 20.015625 -15.9375 L 14.890625 -9.328125 C 14.617188 -9.003906 14.347656 -8.726562 14.078125 -8.5 C 13.804688 -8.269531 13.515625 -8.15625 13.203125 -8.15625 C 12.847656 -8.15625 12.550781 -8.253906 12.3125 -8.453125 C 12.082031 -8.660156 11.8125 -8.953125 11.5 -9.328125 Z M 11.5 -9.328125 "/></g></g></g><g fill="#000000" fill-opacity="1"><g transform="translate(235.965573, 253.551171)"><g><path d="M 17.375 -17.15625 C 18.125 -17.15625 18.5 -16.78125 18.5 -16.03125 L 18.5 -1.140625 C 18.5 -0.253906 18.066406 0.1875 17.203125 0.1875 C 16.773438 0.1875 16.421875 0.0625 16.140625 -0.1875 C 15.867188 -0.4375 15.671875 -0.765625 15.546875 -1.171875 L 15.28125 -2.203125 C 14.632812 -1.460938 13.847656 -0.878906 12.921875 -0.453125 C 11.992188 -0.0234375 10.957031 0.1875 9.8125 0.1875 C 8.613281 0.1875 7.492188 -0.0351562 6.453125 -0.484375 C 5.410156 -0.941406 4.488281 -1.566406 3.6875 -2.359375 C 2.90625 -3.140625 2.28125 -4.054688 1.8125 -5.109375 C 1.351562 -6.171875 1.125 -7.296875 1.125 -8.484375 C 1.125 -9.679688 1.351562 -10.804688 1.8125 -11.859375 C 2.28125 -12.910156 2.90625 -13.828125 3.6875 -14.609375 C 4.488281 -15.390625 5.410156 -16.007812 6.453125 -16.46875 C 7.492188 -16.925781 8.613281 -17.15625 9.8125 -17.15625 C 10.988281 -17.15625 12.046875 -16.925781 12.984375 -16.46875 C 13.921875 -16.019531 14.71875 -15.410156 15.375 -14.640625 L 15.546875 -15.125 C 15.679688 -15.851562 15.910156 -16.375 16.234375 -16.6875 C 16.554688 -17 16.9375 -17.15625 17.375 -17.15625 Z M 13.015625 -5.1875 C 13.421875 -5.601562 13.738281 -6.097656 13.96875 -6.671875 C 14.195312 -7.242188 14.3125 -7.847656 14.3125 -8.484375 C 14.3125 -9.117188 14.195312 -9.71875 13.96875 -10.28125 C 13.738281 -10.851562 13.421875 -11.351562 13.015625 -11.78125 C 12.609375 -12.195312 12.128906 -12.53125 11.578125 -12.78125 C 11.035156 -13.03125 10.445312 -13.15625 9.8125 -13.15625 C 9.175781 -13.15625 8.582031 -13.03125 8.03125 -12.78125 C 7.488281 -12.53125 7.015625 -12.195312 6.609375 -11.78125 C 6.210938 -11.351562 5.894531 -10.851562 5.65625 -10.28125 C 5.425781 -9.71875 5.3125 -9.117188 5.3125 -8.484375 C 5.3125 -7.847656 5.425781 -7.242188 5.65625 -6.671875 C 5.894531 -6.097656 6.210938 -5.601562 6.609375 -5.1875 C 7.015625 -4.757812 7.488281 -4.421875 8.03125 -4.171875 C 8.582031 -3.929688 9.175781 -3.8125 9.8125 -3.8125 C 10.445312 -3.8125 11.035156 -3.929688 11.578125 -4.171875 C 12.128906 -4.421875 12.609375 -4.757812 13.015625 -5.1875 Z M 13.015625 -5.1875 "/></g></g></g><g fill="#000000" fill-opacity="1"><g transform="translate(256.599981, 253.551171)"><g><path d="M 11.5625 -16.28125 C 11.738281 -16.09375 11.878906 -15.875 11.984375 -15.625 C 12.085938 -15.382812 12.140625 -15.113281 12.140625 -14.8125 C 12.140625 -14.53125 12.085938 -14.269531 11.984375 -14.03125 C 11.878906 -13.789062 11.738281 -13.578125 11.5625 -13.390625 C 11.375 -13.203125 11.15625 -13.054688 10.90625 -12.953125 C 10.664062 -12.847656 10.40625 -12.796875 10.125 -12.796875 L 8.375 -12.796875 L 8.375 -1.90625 C 8.375 -1.601562 8.316406 -1.328125 8.203125 -1.078125 C 8.085938 -0.828125 7.9375 -0.609375 7.75 -0.421875 C 7.351562 -0.0234375 6.867188 0.171875 6.296875 0.171875 C 5.691406 0.171875 5.203125 -0.0234375 4.828125 -0.421875 C 4.429688 -0.816406 4.234375 -1.3125 4.234375 -1.90625 L 4.234375 -12.796875 L 2.5625 -12.796875 C 1.988281 -12.796875 1.515625 -12.992188 1.140625 -13.390625 C 0.953125 -13.578125 0.804688 -13.789062 0.703125 -14.03125 C 0.597656 -14.269531 0.546875 -14.53125 0.546875 -14.8125 C 0.546875 -15.113281 0.597656 -15.382812 0.703125 -15.625 C 0.804688 -15.875 0.953125 -16.09375 1.140625 -16.28125 C 1.515625 -16.65625 1.988281 -16.84375 2.5625 -16.84375 L 4.234375 -16.84375 L 4.234375 -20.484375 C 4.234375 -21.054688 4.429688 -21.539062 4.828125 -21.9375 C 5.203125 -22.332031 5.691406 -22.53125 6.296875 -22.53125 C 6.867188 -22.53125 7.351562 -22.332031 7.75 -21.9375 C 7.9375 -21.75 8.085938 -21.53125 8.203125 -21.28125 C 8.316406 -21.03125 8.375 -20.765625 8.375 -20.484375 L 8.375 -16.84375 L 10.125 -16.84375 C 10.6875 -16.84375 11.164062 -16.65625 11.5625 -16.28125 Z M 11.5625 -16.28125 "/></g></g></g><g fill="#000000" fill-opacity="1"><g transform="translate(269.237239, 253.551171)"><g><path d="M 15.921875 -14.765625 C 16.367188 -14.285156 16.59375 -13.796875 16.59375 -13.296875 C 16.59375 -12.703125 16.375 -12.222656 15.9375 -11.859375 C 15.738281 -11.691406 15.503906 -11.566406 15.234375 -11.484375 C 14.972656 -11.410156 14.691406 -11.40625 14.390625 -11.46875 C 13.796875 -11.757812 13.191406 -12.046875 12.578125 -12.328125 C 11.972656 -12.617188 11.320312 -12.828125 10.625 -12.953125 C 9.945312 -13.035156 9.285156 -12.992188 8.640625 -12.828125 C 8.003906 -12.671875 7.429688 -12.394531 6.921875 -12 C 6.421875 -11.613281 6.015625 -11.125 5.703125 -10.53125 C 5.398438 -9.945312 5.25 -9.265625 5.25 -8.484375 C 5.25 -7.734375 5.394531 -7.0625 5.6875 -6.46875 C 5.976562 -5.882812 6.367188 -5.398438 6.859375 -5.015625 C 7.347656 -4.609375 7.914062 -4.316406 8.5625 -4.140625 C 9.207031 -3.972656 9.894531 -3.9375 10.625 -4.03125 C 11.1875 -4.082031 11.734375 -4.21875 12.265625 -4.4375 C 12.796875 -4.664062 13.265625 -4.96875 13.671875 -5.34375 C 13.941406 -5.488281 14.242188 -5.578125 14.578125 -5.609375 C 14.910156 -5.640625 15.234375 -5.59375 15.546875 -5.46875 C 15.867188 -5.34375 16.128906 -5.125 16.328125 -4.8125 C 16.523438 -4.5 16.625 -4.140625 16.625 -3.734375 C 16.625 -3.265625 16.441406 -2.796875 16.078125 -2.328125 C 15.722656 -1.867188 15.234375 -1.453125 14.609375 -1.078125 C 13.972656 -0.710938 13.234375 -0.410156 12.390625 -0.171875 C 11.554688 0.0664062 10.671875 0.1875 9.734375 0.1875 C 8.546875 0.1875 7.425781 -0.0351562 6.375 -0.484375 C 5.320312 -0.941406 4.40625 -1.566406 3.625 -2.359375 C 2.832031 -3.140625 2.207031 -4.054688 1.75 -5.109375 C 1.300781 -6.171875 1.078125 -7.296875 1.078125 -8.484375 C 1.078125 -9.679688 1.300781 -10.804688 1.75 -11.859375 C 2.207031 -12.910156 2.832031 -13.828125 3.625 -14.609375 C 4.40625 -15.390625 5.320312 -16.007812 6.375 -16.46875 C 7.425781 -16.925781 8.546875 -17.15625 9.734375 -17.15625 C 10.941406 -17.15625 12.097656 -16.953125 13.203125 -16.546875 C 13.753906 -16.328125 14.257812 -16.070312 14.71875 -15.78125 C 15.1875 -15.488281 15.585938 -15.148438 15.921875 -14.765625 Z M 15.921875 -14.765625 "/></g></g></g><g fill="#000000" fill-opacity="1"><g transform="translate(286.954002, 253.551171)"><g><path d="M 17.1875 -14.671875 C 17.882812 -13.890625 18.421875 -12.972656 18.796875 -11.921875 C 19.171875 -10.878906 19.359375 -9.757812 19.359375 -8.5625 L 19.359375 -1.9375 C 19.359375 -1.664062 19.300781 -1.40625 19.1875 -1.15625 C 19.082031 -0.90625 18.945312 -0.675781 18.78125 -0.46875 C 18.59375 -0.28125 18.367188 -0.125 18.109375 0 C 17.847656 0.113281 17.570312 0.171875 17.28125 0.171875 C 16.925781 0.171875 16.617188 0.101562 16.359375 -0.03125 C 16.109375 -0.164062 15.898438 -0.34375 15.734375 -0.5625 C 15.554688 -0.769531 15.421875 -1.015625 15.328125 -1.296875 C 15.242188 -1.578125 15.203125 -1.875 15.203125 -2.1875 L 15.203125 -8.546875 C 15.203125 -9.179688 15.09375 -9.78125 14.875 -10.34375 C 14.664062 -10.914062 14.363281 -11.410156 13.96875 -11.828125 C 13.582031 -12.253906 13.125 -12.585938 12.59375 -12.828125 C 12.070312 -13.078125 11.492188 -13.203125 10.859375 -13.203125 C 10.210938 -13.203125 9.601562 -13.0625 9.03125 -12.78125 C 8.457031 -12.5 7.957031 -12.117188 7.53125 -11.640625 C 7.09375 -11.171875 6.75 -10.632812 6.5 -10.03125 C 6.25 -9.425781 6.125 -8.8125 6.125 -8.1875 L 6.125 -1.90625 C 6.125 -1.601562 6.066406 -1.328125 5.953125 -1.078125 C 5.835938 -0.828125 5.6875 -0.609375 5.5 -0.421875 C 5.101562 -0.0234375 4.617188 0.171875 4.046875 0.171875 C 3.460938 0.171875 2.96875 -0.0234375 2.5625 -0.421875 C 2.164062 -0.816406 1.96875 -1.3125 1.96875 -1.90625 L 1.96875 -20.484375 C 1.96875 -21.054688 2.164062 -21.539062 2.5625 -21.9375 C 2.96875 -22.332031 3.460938 -22.53125 4.046875 -22.53125 C 4.617188 -22.53125 5.101562 -22.332031 5.5 -21.9375 C 5.6875 -21.75 5.835938 -21.53125 5.953125 -21.28125 C 6.066406 -21.03125 6.125 -20.765625 6.125 -20.484375 L 6.125 -14.140625 C 6.28125 -14.441406 6.507812 -14.757812 6.8125 -15.09375 C 7.125 -15.425781 7.476562 -15.734375 7.875 -16.015625 C 8.363281 -16.359375 8.910156 -16.640625 9.515625 -16.859375 C 10.128906 -17.085938 10.785156 -17.203125 11.484375 -17.203125 C 12.648438 -17.203125 13.722656 -16.972656 14.703125 -16.515625 C 15.679688 -16.066406 16.507812 -15.453125 17.1875 -14.671875 Z M 17.1875 -14.671875 "/></g></g></g></svg>